<?xml version="1.0" encoding="UTF-8"?>
<svg id="Layer_1" data-name="Layer 1" xmlns="http://www.w3.org/2000/svg" viewBox="0 0 389.5 378.45">
  <path d="M200.78,301.48l-8.64-6.04-1.1-.79-20.54-14.61,13.63-41.94,37.79-18.38c-1.83-5.82-2.44-11.46-2.44-16.42,0-17.16,5.96-32.69,17.11-45.12l-21.53-15.3,14.46-44.48,38.31-18.63,31.34,22.27-9.2,28.3c10.4-2.1,21.7-3.17,33.72-3.17,19.68,0,37.61,2.51,52.89,7.34l11.25-34.61-35.73-25.4-41.37,20.12-33.72-23.96,14.71-45.27L255.99,0l-52.23,25.39-14.71,45.27-47.53,23.11-29.5-20.96-52.24,25.39-16.5,50.79,31.31,22.25-12.33,37.94-45.76,22.25L0,282.21l35.73,25.4,42.53-20.68,32.92,23.39-13.89,42.73,35.74,25.4,52.23-25.4,15.52-51.57M73.24,209.24l12.36-38.06,41.76-20.3,16.04,11.39,12.9,9.17-12.37,38.1-18.87,9.17-22.87,11.11-28.95-20.58ZM159.5,280.04l-40.92,19.91-29.56-21.01,12.36-38.03,26.09-12.68,18.86-9.17,26.8,19.04-13.63,41.94ZM204.07,142.88l-39.17,19.04-12.91-9.17-17.85-12.68,12.36-38.03,45.82-22.27,26.2,18.63-14.45,44.48Z"/>
  <g>
    <path d="M374.45,246.9c0,32.7-31.96,54.71-83.2,54.71-.84,0-1.68-.01-2.51-.02-8.02-.09-15.76-.66-23.1-1.6-11.5-1.48-22-3.91-30.94-6.96-4.38-1.49-8.37-3.13-11.93-4.89-.94-.46-1.86-.93-2.74-1.41l21.39-36.47c2.76,1.42,5.54,2.73,8.32,3.91,15.67,6.69,31.58,9.71,47.15,9.71,14.34,0,21.86-3.35,21.86-8.59,0-13.56-59.77-8.38-74.85-37.22-2.17-4.16-3.42-9.03-3.42-14.77,0-19.26,10.43-34.66,29.26-44.24,0-.01.03-.01.04-.02l2.07-1.01c4.39-2.07,9.21-3.83,14.43-5.27,10.82-2.99,23.36-4.59,37.41-4.59,15.46,0,29.88,1.76,42.26,5.13,7.19,1.95,13.7,4.44,19.32,7.45l-19.98,36.05c-12.84-7.15-28.36-10.72-43.94-10.89-.4-.01-.79-.01-1.19-.01-3.8,0-7.14.26-10.04.74-9.48,1.53-14.17,5.26-14.17,9.11,0,3.36,3.41,5.58,8.8,7.39,2.88.97,6.33,1.82,10.13,2.67,23.23,5.19,59.57,10.28,59.57,41.09Z"/>
    <path d="M191.04,294.65l-.08.14,1.18.65-1.1-.79Z"/>
  </g>
</svg>